<?xml version="1.0" encoding="utf-8"?>
<!-- Generator: Adobe Illustrator 23.1.1, SVG Export Plug-In . SVG Version: 6.00 Build 0)  -->
<svg version="1.1" id="Layer_1" xmlns="http://www.w3.org/2000/svg" xmlns:xlink="http://www.w3.org/1999/xlink" x="0px" y="0px"
	 viewBox="0 0 60 60" style="enable-background:new 0 0 60 60;" xml:space="preserve">
<style type="text/css">
	.st0{enable-background:new    ;}
	.st1{fill:#378D79;}
	.st2{fill:#48B79D;}
	.st3{fill:#64FFDA;}
	.st4{clip-path:url(#SVGID_2_);enable-background:new    ;}
	.st5{fill:#388F7A;}
	.st6{fill:#3A947E;}
	.st7{fill:#3C9983;}
	.st8{fill:#3E9E87;}
	.st9{fill:#40A38C;}
	.st10{fill:#42A890;}
	.st11{fill:#44AD94;}
	.st12{fill:#46B399;}
	.st13{fill:#48B89D;}
	.st14{fill:#4ABDA1;}
	.st15{fill:#4CC2A6;}
	.st16{fill:#4EC7AA;}
	.st17{fill:#50CCAE;}
	.st18{fill:#52D1B3;}
	.st19{fill:#54D6B7;}
	.st20{fill:#56DBBB;}
	.st21{fill:#58E0C0;}
	.st22{fill:#5AE6C4;}
	.st23{fill:#45B096;}
	.st24{clip-path:url(#SVGID_4_);enable-background:new    ;}
	.st25{clip-path:url(#SVGID_6_);enable-background:new    ;}
	.st26{fill:#368A76;}
	.st27{fill:#348571;}
	.st28{clip-path:url(#SVGID_8_);enable-background:new    ;}
	.st29{fill:#388E79;}
</style>
<polygon points="50.12,53.94 29.9,53.89 9.68,53.83 19.85,32.72 30.01,11.6 40.07,32.77 "/>
<g>
	<g class="st0">
		<g>
			<polygon class="st1" points="36.35,56.84 38.65,56.86 55.65,56.98 53.35,56.96 			"/>
		</g>
		<g>
			<polygon class="st2" points="53.67,56.28 55.97,56.3 49.85,42.94 47.55,42.92 			"/>
		</g>
		<g>
			<path class="st3" d="M53.35,56.96c0.29,0,0.47-0.38,0.32-0.68l-6.12-13.36l-3.33-0.02l4.74,10.35c0.15,0.3-0.03,0.68-0.32,0.68
				l-12.27-0.08l-0.02,2.99L53.35,56.96z"/>
		</g>
		<g class="st0">
			<defs>
				<path id="SVGID_1_" class="st0" d="M53.35,56.96l2.3,0.02c0.29,0,0.47-0.38,0.32-0.68l-2.3-0.02
					C53.82,56.58,53.64,56.96,53.35,56.96z"/>
			</defs>
			<clipPath id="SVGID_2_">
				<use xlink:href="#SVGID_1_"  style="overflow:visible;"/>
			</clipPath>
			<g class="st4">
				<polyline class="st5" points="53.35,56.96 55.65,56.98 55.66,56.98 53.36,56.96 53.35,56.96 				"/>
				<path class="st6" d="M53.36,56.96l2.3,0.02c0.01,0,0.02,0,0.03,0l-2.3-0.02C53.38,56.95,53.37,56.96,53.36,56.96"/>
				<path class="st7" d="M53.38,56.95l2.3,0.02c0.01,0,0.02,0,0.02,0l-2.3-0.02C53.4,56.95,53.39,56.95,53.38,56.95"/>
				<path class="st8" d="M53.41,56.95l2.3,0.02c0.01,0,0.01,0,0.02,0l-2.3-0.02C53.42,56.95,53.41,56.95,53.41,56.95"/>
				<path class="st9" d="M53.43,56.95l2.3,0.02c0.01,0,0.01,0,0.02-0.01l-2.3-0.02C53.44,56.94,53.44,56.94,53.43,56.95"/>
				<path class="st10" d="M53.45,56.94l2.3,0.02c0.01,0,0.01,0,0.02-0.01l-2.3-0.02C53.46,56.94,53.45,56.94,53.45,56.94"/>
				<path class="st11" d="M53.47,56.93l2.3,0.02c0.01,0,0.01,0,0.02-0.01l-2.3-0.02C53.48,56.93,53.47,56.93,53.47,56.93"/>
				<path class="st12" d="M53.48,56.93l2.3,0.02c0.01,0,0.01-0.01,0.02-0.01l-2.3-0.02C53.5,56.92,53.49,56.92,53.48,56.93"/>
				<path class="st13" d="M53.5,56.92l2.3,0.02c0.01,0,0.01-0.01,0.02-0.01l-2.3-0.02C53.51,56.91,53.51,56.92,53.5,56.92"/>
				<path class="st14" d="M53.52,56.91l2.3,0.02c0.01,0,0.01-0.01,0.02-0.01l-2.3-0.02C53.53,56.9,53.52,56.91,53.52,56.91"/>
				<path class="st15" d="M53.54,56.9l2.3,0.02c0.01,0,0.01-0.01,0.02-0.01l-2.3-0.02C53.55,56.89,53.54,56.89,53.54,56.9"/>
				<path class="st16" d="M53.55,56.89l2.3,0.02c0.01,0,0.01-0.01,0.02-0.01l-2.3-0.02C53.56,56.88,53.56,56.88,53.55,56.89"/>
				<path class="st17" d="M53.57,56.87l2.3,0.02c0.01-0.01,0.01-0.01,0.02-0.02l-2.3-0.02C53.58,56.86,53.57,56.87,53.57,56.87"/>
				<path class="st18" d="M53.59,56.86l2.3,0.02c0.01-0.01,0.01-0.01,0.02-0.02l-2.3-0.02C53.6,56.84,53.59,56.85,53.59,56.86"/>
				<path class="st19" d="M53.6,56.84l2.3,0.02c0.01-0.01,0.01-0.01,0.02-0.02l-2.3-0.02C53.62,56.82,53.61,56.83,53.6,56.84"/>
				<path class="st20" d="M53.62,56.82l2.3,0.02c0.01-0.01,0.01-0.02,0.02-0.03l-2.3-0.02C53.64,56.8,53.63,56.81,53.62,56.82"/>
				<path class="st21" d="M53.64,56.79l2.3,0.02c0.01-0.01,0.02-0.03,0.02-0.04l-2.3-0.02C53.66,56.76,53.65,56.77,53.64,56.79"/>
				<path class="st22" d="M53.67,56.75l2.3,0.02c0.02-0.05,0.04-0.1,0.05-0.15l-2.3-0.02C53.71,56.65,53.69,56.7,53.67,56.75"/>
				<path class="st21" d="M53.72,56.6l2.3,0.02c0-0.02,0-0.03,0.01-0.05l-2.3-0.02C53.72,56.57,53.72,56.58,53.72,56.6"/>
				<path class="st20" d="M53.72,56.55l2.3,0.02c0-0.01,0-0.02,0-0.04l-2.3-0.02C53.72,56.53,53.72,56.54,53.72,56.55"/>
				<path class="st19" d="M53.72,56.51l2.3,0.02c0-0.01,0-0.02,0-0.03l-2.3-0.02C53.72,56.49,53.72,56.5,53.72,56.51"/>
				<path class="st18" d="M53.72,56.48l2.3,0.02c0-0.01,0-0.02,0-0.03l-2.3-0.02C53.72,56.47,53.72,56.48,53.72,56.48"/>
				<path class="st17" d="M53.72,56.46l2.3,0.02c0-0.01,0-0.02,0-0.02l-2.3-0.02C53.72,56.44,53.72,56.45,53.72,56.46"/>
				<path class="st16" d="M53.72,56.43l2.3,0.02c0-0.01,0-0.02,0-0.02l-2.3-0.02C53.72,56.42,53.72,56.42,53.72,56.43"/>
				<path class="st15" d="M53.71,56.41l2.3,0.02c0-0.01,0-0.01,0-0.02l-2.3-0.02C53.71,56.39,53.71,56.4,53.71,56.41"/>
				<path class="st14" d="M53.71,56.39l2.3,0.02c0-0.01,0-0.01-0.01-0.02l-2.3-0.02C53.71,56.37,53.71,56.38,53.71,56.39"/>
				<path class="st13" d="M53.7,56.37l2.3,0.02c0-0.01,0-0.01-0.01-0.02l-2.3-0.02C53.7,56.35,53.7,56.36,53.7,56.37"/>
				<path class="st12" d="M53.7,56.34l2.3,0.02c0-0.01,0-0.01-0.01-0.02l-2.3-0.02C53.69,56.33,53.7,56.34,53.7,56.34"/>
				<path class="st11" d="M53.69,56.32l2.3,0.02c0-0.01-0.01-0.01-0.01-0.02l-2.3-0.02C53.68,56.31,53.69,56.32,53.69,56.32"/>
				<path class="st10" d="M53.68,56.3l2.3,0.02c0-0.01-0.01-0.01-0.01-0.02l-2.3-0.02C53.68,56.29,53.68,56.29,53.68,56.3"/>
				<polyline class="st9" points="53.67,56.28 55.97,56.3 55.97,56.3 53.67,56.28 53.67,56.28 				"/>
			</g>
		</g>
	</g>
	<g class="st0">
		<g>
			<polygon class="st1" points="18.98,23.41 21.41,23.43 24.36,23.45 21.93,23.43 			"/>
		</g>
		<g>
			<polygon class="st23" points="21.93,23.43 24.24,23.45 30.77,10 28.35,9.98 			"/>
		</g>
		<g class="st0">
			<defs>
				<path id="SVGID_3_" class="st0" d="M28.35,9.98L30.77,10c0.08-0.16,0.21-0.24,0.34-0.24l-2.42-0.02
					C28.56,9.73,28.43,9.81,28.35,9.98z"/>
			</defs>
			<clipPath id="SVGID_4_">
				<use xlink:href="#SVGID_3_"  style="overflow:visible;"/>
			</clipPath>
			<g class="st24">
				<path class="st22" d="M28.35,9.98L30.77,10c0-0.01,0.01-0.01,0.01-0.02l-2.42-0.02C28.36,9.96,28.35,9.97,28.35,9.98"/>
				<path class="st21" d="M28.36,9.96l2.42,0.02c0.01-0.02,0.02-0.03,0.03-0.04l-2.42-0.02C28.38,9.92,28.37,9.94,28.36,9.96"/>
				<path class="st20" d="M28.39,9.91l2.42,0.02c0.01-0.01,0.01-0.02,0.02-0.03l-2.42-0.02C28.4,9.89,28.39,9.9,28.39,9.91"/>
				<path class="st19" d="M28.41,9.88l2.42,0.02c0.01-0.01,0.01-0.02,0.02-0.02l-2.42-0.02C28.42,9.87,28.41,9.87,28.41,9.88"/>
				<path class="st18" d="M28.43,9.86l2.42,0.02c0.01-0.01,0.01-0.01,0.02-0.02l-2.42-0.02C28.44,9.84,28.43,9.85,28.43,9.86"/>
				<path class="st17" d="M28.45,9.84l2.42,0.02c0.01-0.01,0.01-0.01,0.02-0.02l-2.42-0.02C28.46,9.83,28.45,9.83,28.45,9.84"/>
				<path class="st16" d="M28.46,9.82l2.42,0.02c0.01-0.01,0.01-0.01,0.02-0.01l-2.42-0.02C28.48,9.81,28.47,9.82,28.46,9.82"/>
				<path class="st15" d="M28.48,9.81l2.42,0.02c0.01,0,0.01-0.01,0.02-0.01L28.5,9.79C28.49,9.8,28.49,9.8,28.48,9.81"/>
				<path class="st14" d="M28.5,9.79l2.42,0.02c0.01,0,0.01-0.01,0.02-0.01l-2.42-0.02C28.51,9.79,28.5,9.79,28.5,9.79"/>
				<path class="st13" d="M28.52,9.78l2.42,0.02c0.01,0,0.01-0.01,0.02-0.01l-2.42-0.02C28.53,9.78,28.52,9.78,28.52,9.78"/>
				<path class="st12" d="M28.53,9.77l2.42,0.02c0.01,0,0.01-0.01,0.02-0.01l-2.42-0.02C28.55,9.77,28.54,9.77,28.53,9.77"/>
				<path class="st11" d="M28.55,9.76l2.42,0.02c0.01,0,0.01-0.01,0.02-0.01l-2.42-0.02C28.57,9.76,28.56,9.76,28.55,9.76"/>
				<path class="st10" d="M28.57,9.76L31,9.78c0.01,0,0.01,0,0.02-0.01l-2.42-0.02C28.58,9.75,28.58,9.75,28.57,9.76"/>
				<path class="st9" d="M28.59,9.75l2.42,0.02c0.01,0,0.01,0,0.02-0.01l-2.42-0.02C28.61,9.75,28.6,9.75,28.59,9.75"/>
				<path class="st8" d="M28.61,9.74l2.42,0.02c0.01,0,0.01,0,0.02,0l-2.42-0.02C28.63,9.74,28.62,9.74,28.61,9.74"/>
				<path class="st7" d="M28.63,9.74l2.42,0.02c0.01,0,0.02,0,0.02,0l-2.42-0.02C28.65,9.74,28.64,9.74,28.63,9.74"/>
				<path class="st6" d="M28.66,9.74l2.42,0.02c0.01,0,0.02,0,0.03,0l-2.42-0.02C28.68,9.73,28.67,9.73,28.66,9.74"/>
				<polyline class="st5" points="28.69,9.73 31.11,9.76 31.12,9.76 28.69,9.73 28.69,9.73 				"/>
			</g>
		</g>
		<g class="st0">
			<defs>
				<path id="SVGID_5_" class="st0" d="M29.38,3.06l2.42,0.02c-0.08-0.16-0.21-0.25-0.34-0.25l-2.42-0.02
					C29.16,2.81,29.3,2.9,29.38,3.06z"/>
			</defs>
			<clipPath id="SVGID_6_">
				<use xlink:href="#SVGID_5_"  style="overflow:visible;"/>
			</clipPath>
			<g class="st25">
				<polyline class="st10" points="29.38,3.06 31.8,3.08 31.8,3.08 29.37,3.06 29.38,3.06 				"/>
				<path class="st9" d="M29.37,3.06l2.42,0.02c0-0.01-0.01-0.02-0.01-0.02l-2.42-0.02C29.36,3.04,29.37,3.05,29.37,3.06"/>
				<path class="st8" d="M29.36,3.03l2.42,0.02c0-0.01-0.01-0.02-0.01-0.02l-2.42-0.02C29.35,3.01,29.36,3.02,29.36,3.03"/>
				<path class="st7" d="M29.35,3.01l2.42,0.02C31.77,3.02,31.76,3.01,31.75,3l-2.42-0.02C29.34,2.99,29.34,3,29.35,3.01"/>
				<path class="st6" d="M29.33,2.98L31.75,3C31.75,3,31.74,2.99,31.74,2.98l-2.42-0.02C29.32,2.97,29.32,2.97,29.33,2.98"/>
				<path class="st5" d="M29.31,2.96l2.42,0.02c-0.01-0.01-0.01-0.02-0.02-0.03l-2.42-0.02C29.3,2.94,29.31,2.95,29.31,2.96"/>
				<path class="st26" d="M29.29,2.93l2.42,0.02c-0.01-0.01-0.02-0.02-0.03-0.03L29.26,2.9C29.27,2.91,29.28,2.92,29.29,2.93"/>
				<path class="st27" d="M29.26,2.9l2.42,0.02c-0.07-0.06-0.15-0.09-0.23-0.09l-2.42-0.02C29.11,2.81,29.19,2.84,29.26,2.9"/>
			</g>
		</g>
		<g>
			<path class="st3" d="M29.28,9.98l6.22,13.54l3.51,0.02L29.62,3.06c-0.08-0.16-0.21-0.25-0.34-0.25c-0.13,0-0.27,0.08-0.35,0.24
				l-9.7,20.35l2.95,0.02L28.6,9.98c0.08-0.16,0.21-0.24,0.34-0.24C29.07,9.74,29.21,9.82,29.28,9.98z"/>
		</g>
		<g>
			<polygon class="st1" points="35.5,23.52 37.68,23.54 41.18,23.56 38.76,23.54 			"/>
		</g>
		<g>
			<polygon class="st2" points="38.76,23.54 41.18,23.56 31.8,3.08 29.38,3.06 			"/>
		</g>
	</g>
	<g class="st0">
		<g class="st0">
			<defs>
				<path id="SVGID_7_" class="st0" d="M8.23,53.61l2.32,0.02c-0.29,0-0.47-0.39-0.32-0.69l-2.32-0.02
					C7.76,53.23,7.94,53.61,8.23,53.61z"/>
			</defs>
			<clipPath id="SVGID_8_">
				<use xlink:href="#SVGID_7_"  style="overflow:visible;"/>
			</clipPath>
			<g class="st28">
				<path class="st27" d="M8.23,53.61l2.32,0.02c-0.08,0-0.15-0.03-0.21-0.08l-2.32-0.02C8.07,53.58,8.14,53.61,8.23,53.61"/>
				<path class="st26" d="M8.01,53.53l2.32,0.02c-0.01-0.01-0.02-0.02-0.03-0.03L7.98,53.5C7.99,53.51,8,53.52,8.01,53.53"/>
				<path class="st5" d="M7.98,53.5l2.32,0.02c-0.01-0.01-0.01-0.02-0.02-0.02l-2.32-0.02C7.97,53.49,7.98,53.5,7.98,53.5"/>
				<path class="st6" d="M7.96,53.48l2.32,0.02c-0.01-0.01-0.01-0.02-0.02-0.02l-2.32-0.02C7.95,53.46,7.96,53.47,7.96,53.48"/>
				<path class="st7" d="M7.95,53.46l2.32,0.02c0-0.01-0.01-0.01-0.01-0.02l-2.32-0.02C7.94,53.44,7.94,53.45,7.95,53.46"/>
				<path class="st8" d="M7.93,53.44l2.32,0.02c0-0.01-0.01-0.01-0.01-0.02l-2.32-0.02C7.92,53.42,7.93,53.43,7.93,53.44"/>
				<path class="st9" d="M8.27,53.07l2.32,0.02c0-0.01-0.01-0.01-0.01-0.02l-2.32-0.02C8.26,53.05,8.26,53.06,8.27,53.07"/>
				<path class="st10" d="M7.91,53.39l2.32,0.02c0-0.01-0.01-0.01-0.01-0.02L7.9,53.37C7.9,53.38,7.9,53.39,7.91,53.39"/>
				<path class="st11" d="M7.9,53.37l2.32,0.02c0-0.01-0.01-0.01-0.01-0.02l-2.32-0.02C7.89,53.36,7.9,53.36,7.9,53.37"/>
				<path class="st12" d="M7.89,53.35l2.32,0.02c0-0.01-0.01-0.01-0.01-0.02l-2.32-0.02C7.88,53.34,7.89,53.34,7.89,53.35"/>
				<path class="st13" d="M7.88,53.33l2.32,0.02c0-0.01,0-0.01-0.01-0.02l-2.32-0.02C7.88,53.31,7.88,53.32,7.88,53.33"/>
				<path class="st14" d="M7.88,53.31l2.32,0.02c0-0.01,0-0.02-0.01-0.02l-2.32-0.02C7.87,53.29,7.87,53.3,7.88,53.31"/>
				<path class="st15" d="M7.87,53.28l2.32,0.02c0-0.01,0-0.02,0-0.02l-2.32-0.02C7.87,53.27,7.87,53.28,7.87,53.28"/>
				<path class="st16" d="M7.86,53.26l2.32,0.02c0-0.01,0-0.02,0-0.02l-2.32-0.02C7.86,53.24,7.86,53.25,7.86,53.26"/>
				<path class="st17" d="M7.86,53.24l2.32,0.02c0-0.01,0-0.02,0-0.03l-2.32-0.02C7.86,53.22,7.86,53.23,7.86,53.24"/>
				<path class="st18" d="M7.86,53.21l2.32,0.02c0-0.01,0-0.02,0-0.03l-2.32-0.02C7.86,53.19,7.86,53.2,7.86,53.21"/>
				<path class="st19" d="M7.86,53.18l2.32,0.02c0-0.01,0-0.02,0-0.03l-2.32-0.02C7.85,53.16,7.85,53.17,7.86,53.18"/>
				<path class="st20" d="M7.85,53.15l2.32,0.02c0-0.01,0-0.02,0-0.03l-2.32-0.02C7.86,53.13,7.85,53.14,7.85,53.15"/>
				<path class="st21" d="M7.86,53.12l2.32,0.02c0-0.02,0-0.03,0.01-0.05l-2.32-0.02C7.86,53.08,7.86,53.1,7.86,53.12"/>
				<path class="st22" d="M7.86,53.07l2.32,0.02c0.01-0.05,0.02-0.09,0.04-0.14l-2.32-0.02C7.89,52.97,7.87,53.02,7.86,53.07"/>
			</g>
		</g>
		<g>
			<polygon class="st23" points="7.91,52.93 10.22,52.95 15.1,42.58 12.85,42.56 			"/>
		</g>
		<g>
			<path class="st3" d="M3.65,55.91c-0.15,0.3,0.02,0.68,0.31,0.69l17.13,0.12l0.02-3.01l-12.9-0.09c-0.29,0-0.47-0.39-0.32-0.69
				l4.94-10.37l-2.82-0.02L3.65,55.91z"/>
		</g>
		<g>
			<polygon class="st1" points="3.97,56.6 6.28,56.62 23.42,56.74 21.1,56.72 			"/>
		</g>
		<g>
			<polygon class="st23" points="21.1,56.72 23.42,56.74 23.44,53.72 21.12,53.7 			"/>
		</g>
	</g>
</g>
<g>
	<g class="st0">
		<g>
			<rect x="26.1" y="39.79" class="st23" width="2.42" height="8.42"/>
		</g>
		<g>
			<rect x="26.1" y="29.93" class="st23" width="2.42" height="7.37"/>
		</g>
		<g>
			<rect x="33.62" y="37.3" class="st23" width="2.42" height="2.49"/>
		</g>
		<g>
			<polygon class="st29" points="26.1,37.3 28.52,37.3 36.04,37.3 33.62,37.3 			"/>
		</g>
		<g>
			<polygon class="st29" points="23.6,27.39 26.02,27.39 36.48,27.39 34.05,27.39 			"/>
		</g>
		<g>
			<rect x="34.05" y="27.39" class="st23" width="2.42" height="2.53"/>
		</g>
		<g>
			<polygon class="st29" points="26.1,48.21 28.52,48.21 36.9,48.21 34.48,48.21 			"/>
		</g>
		<g>
			<rect x="34.48" y="48.21" class="st23" width="2.42" height="2.53"/>
		</g>
		<g>
			<polygon class="st3" points="34.05,27.39 34.05,29.93 26.1,29.93 26.1,37.3 33.62,37.3 33.62,39.79 26.1,39.79 26.1,48.21 
				34.48,48.21 34.48,50.74 23.6,50.74 23.6,27.39 			"/>
		</g>
	</g>
</g>
</svg>
