<?xml version="1.0" encoding="utf-8"?>
<!-- Generator: Adobe Illustrator 23.1.1, SVG Export Plug-In . SVG Version: 6.00 Build 0)  -->
<svg version="1.1" id="Layer_1" xmlns="http://www.w3.org/2000/svg" xmlns:xlink="http://www.w3.org/1999/xlink" x="0px" y="0px"
	 viewBox="0 0 60 60" style="enable-background:new 0 0 60 60;" xml:space="preserve">
<style type="text/css">
	.st0{enable-background:new    ;}
	.st1{fill:#378D79;}
	.st2{fill:#48B79D;}
	.st3{fill:#64FFDA;}
	.st4{clip-path:url(#SVGID_2_);enable-background:new    ;}
	.st5{fill:#388F7A;}
	.st6{fill:#3A947E;}
	.st7{fill:#3C9983;}
	.st8{fill:#3E9E87;}
	.st9{fill:#40A38C;}
	.st10{fill:#42A890;}
	.st11{fill:#44AD94;}
	.st12{fill:#46B399;}
	.st13{fill:#48B89D;}
	.st14{fill:#4ABDA1;}
	.st15{fill:#4CC2A6;}
	.st16{fill:#4EC7AA;}
	.st17{fill:#50CCAE;}
	.st18{fill:#52D1B3;}
	.st19{fill:#54D6B7;}
	.st20{fill:#56DBBB;}
	.st21{fill:#58E0C0;}
	.st22{fill:#5AE6C4;}
	.st23{fill:#45B096;}
	.st24{clip-path:url(#SVGID_4_);enable-background:new    ;}
	.st25{clip-path:url(#SVGID_6_);enable-background:new    ;}
	.st26{fill:#368A76;}
	.st27{fill:#348571;}
	.st28{clip-path:url(#SVGID_8_);enable-background:new    ;}
	.st29{fill:#388E79;}
</style>
<g>
	<g class="st0">
		<g>
			<polygon class="st1" points="36.57,1.45 38.98,1.43 56.79,1.31 54.38,1.33 			"/>
		</g>
		<g>
			<polygon class="st2" points="54.71,2.04 57.12,2.02 50.71,16.01 48.3,16.03 			"/>
		</g>
		<g>
			<path class="st3" d="M54.38,1.33c0.3,0,0.49,0.39,0.33,0.71L48.3,16.03l-3.49,0.02l4.97-10.85c0.15-0.32-0.04-0.71-0.33-0.71
				L36.59,4.58l-0.02-3.13L54.38,1.33z"/>
		</g>
		<g class="st0">
			<defs>
				<path id="SVGID_1_" class="st0" d="M54.38,1.33l2.41-0.02c0.3,0,0.49,0.39,0.33,0.71l-2.41,0.02
					C54.87,1.72,54.68,1.33,54.38,1.33z"/>
			</defs>
			<clipPath id="SVGID_2_">
				<use xlink:href="#SVGID_1_"  style="overflow:visible;"/>
			</clipPath>
			<g class="st4">
				<polyline class="st5" points="54.38,1.33 56.79,1.31 56.79,1.31 54.39,1.33 54.38,1.33 				"/>
				<path class="st6" d="M54.39,1.33l2.41-0.02c0.01,0,0.02,0,0.03,0l-2.41,0.02C54.4,1.33,54.4,1.33,54.39,1.33"/>
				<path class="st7" d="M54.41,1.33l2.41-0.02c0.01,0,0.02,0,0.02,0l-2.41,0.02C54.43,1.33,54.42,1.33,54.41,1.33"/>
				<path class="st8" d="M54.44,1.33l2.41-0.02c0.01,0,0.01,0,0.02,0l-2.41,0.02C54.45,1.34,54.45,1.34,54.44,1.33"/>
				<path class="st9" d="M54.46,1.34l2.41-0.02c0.01,0,0.01,0,0.02,0.01l-2.41,0.02C54.47,1.34,54.47,1.34,54.46,1.34"/>
				<path class="st10" d="M54.48,1.34l2.41-0.02c0.01,0,0.01,0,0.02,0.01L54.5,1.35C54.49,1.35,54.49,1.35,54.48,1.34"/>
				<path class="st11" d="M54.5,1.35l2.41-0.02c0.01,0,0.01,0.01,0.02,0.01l-2.41,0.02C54.51,1.36,54.51,1.35,54.5,1.35"/>
				<path class="st12" d="M54.52,1.36l2.41-0.02c0.01,0,0.01,0.01,0.02,0.01l-2.41,0.02C54.53,1.37,54.52,1.36,54.52,1.36"/>
				<path class="st13" d="M54.54,1.37l2.41-0.02c0.01,0,0.01,0.01,0.02,0.01l-2.41,0.02C54.55,1.38,54.54,1.37,54.54,1.37"/>
				<path class="st14" d="M54.55,1.38l2.41-0.02c0.01,0,0.01,0.01,0.02,0.01l-2.41,0.02C54.57,1.39,54.56,1.38,54.55,1.38"/>
				<path class="st15" d="M54.57,1.39l2.41-0.02c0.01,0,0.01,0.01,0.02,0.01L54.59,1.4C54.58,1.4,54.58,1.39,54.57,1.39"/>
				<path class="st16" d="M54.59,1.4L57,1.38c0.01,0,0.01,0.01,0.02,0.01l-2.41,0.02C54.6,1.41,54.6,1.41,54.59,1.4"/>
				<path class="st17" d="M54.61,1.42l2.41-0.02c0.01,0.01,0.01,0.01,0.02,0.02l-2.41,0.02C54.62,1.43,54.61,1.42,54.61,1.42"/>
				<path class="st18" d="M54.62,1.43l2.41-0.02c0.01,0.01,0.01,0.01,0.02,0.02l-2.41,0.02C54.64,1.45,54.63,1.44,54.62,1.43"/>
				<path class="st19" d="M54.64,1.45l2.41-0.02c0.01,0.01,0.01,0.02,0.02,0.02l-2.41,0.02C54.66,1.47,54.65,1.46,54.64,1.45"/>
				<path class="st20" d="M54.66,1.48l2.41-0.02c0.01,0.01,0.01,0.02,0.02,0.03l-2.41,0.02C54.68,1.5,54.67,1.49,54.66,1.48"/>
				<path class="st21" d="M54.68,1.51l2.41-0.02c0.01,0.01,0.02,0.03,0.03,0.04l-2.41,0.02C54.7,1.53,54.69,1.52,54.68,1.51"/>
				<path class="st22" d="M54.71,1.55l2.41-0.02c0.02,0.05,0.04,0.1,0.05,0.16l-2.41,0.02C54.75,1.65,54.73,1.6,54.71,1.55"/>
				<path class="st21" d="M54.76,1.71l2.41-0.02c0,0.02,0,0.03,0.01,0.05l-2.41,0.02C54.77,1.74,54.76,1.72,54.76,1.71"/>
				<path class="st20" d="M54.77,1.76l2.41-0.02c0,0.01,0,0.03,0,0.04l-2.41,0.02C54.77,1.78,54.77,1.77,54.77,1.76"/>
				<path class="st19" d="M54.77,1.79l2.41-0.02c0,0.01,0,0.02,0,0.03l-2.41,0.02C54.77,1.81,54.77,1.8,54.77,1.79"/>
				<path class="st18" d="M54.77,1.82l2.41-0.02c0,0.01,0,0.02,0,0.03l-2.41,0.02C54.77,1.84,54.77,1.83,54.77,1.82"/>
				<path class="st17" d="M54.77,1.85l2.41-0.02c0,0.01,0,0.02,0,0.03l-2.41,0.02C54.76,1.87,54.77,1.86,54.77,1.85"/>
				<path class="st16" d="M54.76,1.88l2.41-0.02c0,0.01,0,0.02,0,0.02L54.76,1.9C54.76,1.89,54.76,1.89,54.76,1.88"/>
				<path class="st15" d="M54.76,1.9l2.41-0.02c0,0.01,0,0.02,0,0.02l-2.41,0.02C54.76,1.92,54.76,1.91,54.76,1.9"/>
				<path class="st14" d="M54.75,1.93l2.41-0.02c0,0.01,0,0.02-0.01,0.02l-2.41,0.02C54.75,1.94,54.75,1.93,54.75,1.93"/>
				<path class="st13" d="M54.75,1.95l2.41-0.02c0,0.01,0,0.01-0.01,0.02l-2.41,0.02C54.74,1.96,54.75,1.96,54.75,1.95"/>
				<path class="st12" d="M54.74,1.97l2.41-0.02c0,0.01-0.01,0.01-0.01,0.02l-2.41,0.02C54.74,1.99,54.74,1.98,54.74,1.97"/>
				<path class="st11" d="M54.73,1.99l2.41-0.02c0,0.01-0.01,0.02-0.01,0.02l-2.41,0.02C54.73,2.01,54.73,2,54.73,1.99"/>
				<path class="st10" d="M54.73,2.02l2.41-0.02c0,0.01-0.01,0.01-0.01,0.02l-2.41,0.02C54.72,2.03,54.72,2.02,54.73,2.02"/>
				<polyline class="st9" points="54.71,2.04 57.12,2.02 57.12,2.02 54.71,2.04 54.71,2.04 				"/>
			</g>
		</g>
	</g>
	<g class="st0">
		<g>
			<polygon class="st1" points="18.37,36.48 20.91,36.46 24,36.44 21.46,36.46 			"/>
		</g>
		<g>
			<polygon class="st23" points="21.46,36.46 24,36.44 30.73,50.53 28.19,50.55 			"/>
		</g>
		<g class="st0">
			<defs>
				<path id="SVGID_3_" class="st0" d="M28.19,50.55l2.54-0.02c0.08,0.17,0.22,0.25,0.36,0.25l-2.54,0.02
					C28.41,50.8,28.27,50.72,28.19,50.55z"/>
			</defs>
			<clipPath id="SVGID_4_">
				<use xlink:href="#SVGID_3_"  style="overflow:visible;"/>
			</clipPath>
			<g class="st24">
				<path class="st22" d="M28.19,50.55l2.54-0.02c0,0.01,0.01,0.01,0.01,0.02l-2.54,0.02C28.19,50.56,28.19,50.56,28.19,50.55"/>
				<path class="st21" d="M28.2,50.57l2.54-0.02c0.01,0.02,0.02,0.03,0.03,0.05l-2.54,0.02C28.22,50.6,28.21,50.59,28.2,50.57"/>
				<path class="st20" d="M28.22,50.62l2.54-0.02c0.01,0.01,0.01,0.02,0.02,0.03l-2.54,0.02C28.24,50.64,28.23,50.63,28.22,50.62"/>
				<path class="st19" d="M28.25,50.65l2.54-0.02c0.01,0.01,0.01,0.02,0.02,0.02l-2.54,0.02C28.26,50.67,28.25,50.66,28.25,50.65"/>
				<path class="st18" d="M28.27,50.67l2.54-0.02c0.01,0.01,0.01,0.01,0.02,0.02l-2.54,0.02C28.28,50.69,28.27,50.68,28.27,50.67"/>
				<path class="st17" d="M28.29,50.69l2.54-0.02c0.01,0.01,0.01,0.01,0.02,0.02l-2.54,0.02C28.3,50.7,28.29,50.7,28.29,50.69"/>
				<path class="st16" d="M28.31,50.71l2.54-0.02c0.01,0.01,0.01,0.01,0.02,0.02l-2.54,0.02C28.32,50.72,28.31,50.72,28.31,50.71"/>
				<path class="st15" d="M28.32,50.73l2.54-0.02c0.01,0,0.01,0.01,0.02,0.01l-2.54,0.02C28.34,50.73,28.33,50.73,28.32,50.73"/>
				<path class="st14" d="M28.34,50.74l2.54-0.02c0.01,0,0.01,0.01,0.02,0.01l-2.54,0.02C28.35,50.75,28.35,50.74,28.34,50.74"/>
				<path class="st13" d="M28.36,50.75l2.54-0.02c0.01,0,0.01,0.01,0.02,0.01l-2.54,0.02C28.37,50.76,28.37,50.75,28.36,50.75"/>
				<path class="st12" d="M28.38,50.76l2.54-0.02c0.01,0,0.01,0.01,0.02,0.01l-2.54,0.02C28.39,50.77,28.39,50.76,28.38,50.76"/>
				<path class="st11" d="M28.4,50.77l2.54-0.02c0.01,0,0.01,0.01,0.02,0.01l-2.54,0.02C28.41,50.78,28.4,50.77,28.4,50.77"/>
				<path class="st10" d="M28.42,50.78l2.54-0.02c0.01,0,0.01,0.01,0.02,0.01l-2.54,0.02C28.43,50.78,28.42,50.78,28.42,50.78"/>
				<path class="st9" d="M28.44,50.79l2.54-0.02c0.01,0,0.01,0,0.02,0.01l-2.54,0.02C28.45,50.79,28.45,50.79,28.44,50.79"/>
				<path class="st8" d="M28.46,50.79L31,50.77c0.01,0,0.02,0,0.02,0l-2.54,0.02C28.48,50.8,28.47,50.79,28.46,50.79"/>
				<path class="st7" d="M28.48,50.8l2.54-0.02c0.01,0,0.02,0,0.03,0l-2.54,0.02C28.5,50.8,28.49,50.8,28.48,50.8"/>
				<path class="st6" d="M28.51,50.8l2.54-0.02c0.01,0,0.02,0,0.03,0l-2.54,0.02C28.53,50.8,28.52,50.8,28.51,50.8"/>
				<polyline class="st5" points="28.54,50.8 31.08,50.78 31.08,50.78 28.54,50.8 28.54,50.8 				"/>
			</g>
		</g>
		<g class="st0">
			<defs>
				<path id="SVGID_5_" class="st0" d="M29.26,57.8l2.54-0.02c-0.08,0.17-0.22,0.26-0.36,0.26l-2.54,0.02
					C29.04,58.05,29.18,57.97,29.26,57.8z"/>
			</defs>
			<clipPath id="SVGID_6_">
				<use xlink:href="#SVGID_5_"  style="overflow:visible;"/>
			</clipPath>
			<g class="st25">
				<polyline class="st10" points="29.26,57.8 31.8,57.77 31.8,57.78 29.26,57.8 29.26,57.8 				"/>
				<path class="st9" d="M29.26,57.8l2.54-0.02c0,0.01-0.01,0.02-0.01,0.03l-2.54,0.02C29.25,57.82,29.25,57.81,29.26,57.8"/>
				<path class="st8" d="M29.24,57.83l2.54-0.02c0,0.01-0.01,0.02-0.01,0.03l-2.54,0.02C29.24,57.84,29.24,57.83,29.24,57.83"/>
				<path class="st7" d="M29.23,57.85l2.54-0.02c-0.01,0.01-0.01,0.02-0.02,0.03l-2.54,0.02C29.22,57.87,29.22,57.86,29.23,57.85"/>
				<path class="st6" d="M29.21,57.88l2.54-0.02c-0.01,0.01-0.01,0.02-0.02,0.03l-2.54,0.02C29.2,57.89,29.21,57.88,29.21,57.88"/>
				<path class="st5" d="M29.19,57.9l2.54-0.02c-0.01,0.01-0.02,0.02-0.02,0.03l-2.54,0.02C29.18,57.92,29.19,57.91,29.19,57.9"/>
				<path class="st26" d="M29.17,57.93l2.54-0.02c-0.01,0.01-0.02,0.02-0.03,0.03l-2.54,0.02C29.15,57.95,29.16,57.94,29.17,57.93"
					/>
				<path class="st27" d="M29.14,57.96l2.54-0.02c-0.07,0.06-0.16,0.09-0.24,0.09l-2.54,0.02C28.98,58.05,29.07,58.02,29.14,57.96"
					/>
			</g>
		</g>
		<g>
			<path class="st3" d="M28.91,50.54l6.51-14.18l3.67-0.03L29.26,57.8c-0.08,0.17-0.22,0.26-0.36,0.26c-0.14,0-0.28-0.08-0.37-0.25
				L18.37,36.48l3.09-0.02l6.73,14.09c0.08,0.17,0.22,0.25,0.36,0.25C28.68,50.8,28.82,50.72,28.91,50.54z"/>
		</g>
		<g>
			<polygon class="st1" points="35.42,36.36 37.96,36.34 41.63,36.32 39.09,36.34 			"/>
		</g>
		<g>
			<polygon class="st2" points="39.09,36.34 41.63,36.32 31.8,57.77 29.26,57.8 			"/>
		</g>
	</g>
	<g class="st0">
		<g class="st0">
			<defs>
				<path id="SVGID_7_" class="st0" d="M7.1,4.83l2.43-0.02c-0.3,0-0.49,0.4-0.33,0.72L6.77,5.55C6.62,5.23,6.8,4.83,7.1,4.83z"/>
			</defs>
			<clipPath id="SVGID_8_">
				<use xlink:href="#SVGID_7_"  style="overflow:visible;"/>
			</clipPath>
			<g class="st28">
				<path class="st27" d="M7.1,4.83l2.43-0.02c-0.09,0-0.16,0.03-0.22,0.09L6.88,4.92C6.94,4.86,7.02,4.83,7.1,4.83"/>
				<path class="st26" d="M6.88,4.92l2.43-0.02C9.3,4.9,9.29,4.91,9.28,4.92L6.85,4.95C6.86,4.94,6.87,4.93,6.88,4.92"/>
				<path class="st5" d="M6.85,4.95l2.43-0.02C9.27,4.93,9.26,4.94,9.25,4.95L6.83,4.97C6.83,4.96,6.84,4.95,6.85,4.95"/>
				<path class="st6" d="M6.83,4.97l2.43-0.02C9.25,4.96,9.24,4.97,9.24,4.97L6.81,5C6.81,4.99,6.82,4.98,6.83,4.97"/>
				<path class="st7" d="M6.81,5l2.43-0.02C9.23,4.98,9.23,4.99,9.22,5L6.79,5.02C6.8,5.01,6.8,5,6.81,5"/>
				<path class="st8" d="M6.79,5.02L9.22,5c0,0.01-0.01,0.01-0.01,0.02L6.78,5.04C6.79,5.03,6.79,5.03,6.79,5.02"/>
				<path class="st9" d="M7.14,5.4l2.43-0.02c0,0.01-0.01,0.01-0.01,0.02L7.13,5.43C7.14,5.42,7.14,5.41,7.14,5.4"/>
				<path class="st10" d="M6.77,5.06L9.2,5.04c0,0.01-0.01,0.01-0.01,0.02L6.76,5.09C6.76,5.08,6.77,5.07,6.77,5.06"/>
				<path class="st11" d="M6.76,5.09l2.43-0.02c0,0.01-0.01,0.01-0.01,0.02L6.75,5.11C6.75,5.1,6.76,5.09,6.76,5.09"/>
				<path class="st12" d="M6.75,5.11l2.43-0.02c0,0.01-0.01,0.02-0.01,0.02L6.74,5.13C6.74,5.12,6.75,5.12,6.75,5.11"/>
				<path class="st13" d="M6.74,5.13l2.43-0.02c0,0.01,0,0.02-0.01,0.02L6.73,5.15C6.74,5.15,6.74,5.14,6.74,5.13"/>
				<path class="st14" d="M6.73,5.15l2.43-0.02c0,0.01,0,0.02-0.01,0.02L6.73,5.18C6.73,5.17,6.73,5.16,6.73,5.15"/>
				<path class="st15" d="M6.73,5.18l2.43-0.02c0,0.01,0,0.02-0.01,0.02L6.72,5.2C6.73,5.19,6.73,5.19,6.73,5.18"/>
				<path class="st16" d="M6.72,5.2l2.43-0.02c0,0.01,0,0.02,0,0.03L6.72,5.23C6.72,5.22,6.72,5.21,6.72,5.2"/>
				<path class="st17" d="M6.72,5.23l2.43-0.02c0,0.01,0,0.02,0,0.03L6.72,5.25C6.72,5.25,6.72,5.24,6.72,5.23"/>
				<path class="st18" d="M6.72,5.25l2.43-0.02c0,0.01,0,0.02,0,0.03L6.71,5.28C6.71,5.27,6.72,5.26,6.72,5.25"/>
				<path class="st19" d="M6.71,5.28l2.43-0.02c0,0.01,0,0.02,0,0.03L6.71,5.32C6.71,5.31,6.71,5.29,6.71,5.28"/>
				<path class="st20" d="M6.71,5.32l2.43-0.02c0,0.01,0,0.02,0,0.04L6.72,5.35C6.71,5.34,6.71,5.33,6.71,5.32"/>
				<path class="st21" d="M6.72,5.35l2.43-0.02c0,0.02,0,0.03,0.01,0.05L6.72,5.4C6.72,5.39,6.72,5.37,6.72,5.35"/>
				<path class="st22" d="M6.72,5.4l2.43-0.02c0.01,0.05,0.02,0.1,0.05,0.15L6.77,5.55C6.75,5.5,6.73,5.45,6.72,5.4"/>
			</g>
		</g>
		<g>
			<polygon class="st23" points="6.77,5.55 9.2,5.53 14.37,16.39 11.95,16.42 			"/>
		</g>
		<g>
			<path class="st3" d="M2.31,2.42C2.15,2.11,2.34,1.7,2.64,1.7l17.95-0.12l0.02,3.16L7.1,4.83c-0.3,0-0.49,0.4-0.33,0.72
				l5.18,10.87l-2.96,0.02L2.31,2.42z"/>
		</g>
		<g>
			<polygon class="st1" points="2.64,1.7 5.07,1.68 23.02,1.56 20.59,1.58 			"/>
		</g>
		<g>
			<polygon class="st23" points="20.59,1.58 23.02,1.56 23.04,4.72 20.62,4.74 			"/>
		</g>
	</g>
</g>
<g>
	<g class="st0">
		<g>
			<rect x="25.83" y="21.05" class="st23" width="2.54" height="8.82"/>
		</g>
		<g>
			<rect x="25.83" y="10.71" class="st23" width="2.54" height="7.72"/>
		</g>
		<g>
			<rect x="33.71" y="18.44" class="st23" width="2.54" height="2.61"/>
		</g>
		<g>
			<polygon class="st29" points="25.83,18.44 28.37,18.44 36.25,18.44 33.71,18.44 			"/>
		</g>
		<g>
			<polygon class="st29" points="23.21,8.06 25.75,8.06 36.7,8.06 34.16,8.06 			"/>
		</g>
		<g>
			<rect x="34.16" y="8.06" class="st23" width="2.54" height="2.65"/>
		</g>
		<g>
			<polygon class="st29" points="25.83,29.87 28.37,29.87 37.15,29.87 34.61,29.87 			"/>
		</g>
		<g>
			<rect x="34.61" y="29.87" class="st23" width="2.54" height="2.65"/>
		</g>
		<g>
			<polygon class="st3" points="34.16,8.06 34.16,10.71 25.83,10.71 25.83,18.44 33.71,18.44 33.71,21.05 25.83,21.05 25.83,29.87 
				34.61,29.87 34.61,32.52 23.21,32.52 23.21,8.06 			"/>
		</g>
	</g>
</g>
</svg>
