<?xml version="1.0" encoding="utf-8"?>
<!-- Generator: Adobe Illustrator 23.1.1, SVG Export Plug-In . SVG Version: 6.00 Build 0)  -->
<svg version="1.1" id="Layer_1" xmlns="http://www.w3.org/2000/svg" xmlns:xlink="http://www.w3.org/1999/xlink" x="0px" y="0px"
	 viewBox="0 0 60 60" style="enable-background:new 0 0 60 60;" xml:space="preserve">
<style type="text/css">
	.st0{enable-background:new    ;}
	.st1{fill:#378D79;}
	.st2{fill:#48B79D;}
	.st3{fill:#64FFDA;}
	.st4{clip-path:url(#SVGID_2_);enable-background:new    ;}
	.st5{fill:#388F7A;}
	.st6{fill:#3A947E;}
	.st7{fill:#3C9983;}
	.st8{fill:#3E9E87;}
	.st9{fill:#40A38C;}
	.st10{fill:#42A890;}
	.st11{fill:#44AD94;}
	.st12{fill:#46B399;}
	.st13{fill:#48B89D;}
	.st14{fill:#4ABDA1;}
	.st15{fill:#4CC2A6;}
	.st16{fill:#4EC7AA;}
	.st17{fill:#50CCAE;}
	.st18{fill:#52D1B3;}
	.st19{fill:#54D6B7;}
	.st20{fill:#56DBBB;}
	.st21{fill:#58E0C0;}
	.st22{fill:#5AE6C4;}
	.st23{fill:#45B096;}
	.st24{clip-path:url(#SVGID_4_);enable-background:new    ;}
	.st25{clip-path:url(#SVGID_6_);enable-background:new    ;}
	.st26{fill:#368A76;}
	.st27{fill:#348571;}
	.st28{clip-path:url(#SVGID_8_);enable-background:new    ;}
	.st29{fill:#388E79;}
</style>
<g>
	<g class="st0">
		<g>
			<polygon class="st1" points="36.57,57.91 38.98,57.93 56.79,58.05 54.38,58.03 			"/>
		</g>
		<g>
			<polygon class="st2" points="54.71,57.32 57.12,57.34 50.71,43.35 48.3,43.33 			"/>
		</g>
		<g>
			<path class="st3" d="M54.38,58.03c0.3,0,0.49-0.39,0.33-0.71L48.3,43.33l-3.49-0.02l4.97,10.85c0.15,0.32-0.04,0.71-0.33,0.71
				l-12.85-0.09l-0.02,3.13L54.38,58.03z"/>
		</g>
		<g class="st0">
			<defs>
				<path id="SVGID_1_" class="st0" d="M54.38,58.03l2.41,0.02c0.3,0,0.49-0.39,0.33-0.71l-2.41-0.02
					C54.87,57.64,54.68,58.03,54.38,58.03z"/>
			</defs>
			<clipPath id="SVGID_2_">
				<use xlink:href="#SVGID_1_"  style="overflow:visible;"/>
			</clipPath>
			<g class="st4">
				<polyline class="st5" points="54.38,58.03 56.79,58.05 56.79,58.05 54.39,58.03 54.38,58.03 				"/>
				<path class="st6" d="M54.39,58.03l2.41,0.02c0.01,0,0.02,0,0.03,0l-2.41-0.02C54.4,58.03,54.4,58.03,54.39,58.03"/>
				<path class="st7" d="M54.41,58.03l2.41,0.02c0.01,0,0.02,0,0.02,0l-2.41-0.02C54.43,58.03,54.42,58.03,54.41,58.03"/>
				<path class="st8" d="M54.44,58.03l2.41,0.02c0.01,0,0.01,0,0.02,0l-2.41-0.02C54.45,58.02,54.45,58.03,54.44,58.03"/>
				<path class="st9" d="M54.46,58.02l2.41,0.02c0.01,0,0.01,0,0.02-0.01l-2.41-0.02C54.47,58.02,54.47,58.02,54.46,58.02"/>
				<path class="st10" d="M54.48,58.02l2.41,0.02c0.01,0,0.01,0,0.02-0.01l-2.41-0.02C54.49,58.01,54.49,58.02,54.48,58.02"/>
				<path class="st11" d="M54.5,58.01l2.41,0.02c0.01,0,0.01-0.01,0.02-0.01L54.52,58C54.51,58.01,54.51,58.01,54.5,58.01"/>
				<path class="st12" d="M54.52,58l2.41,0.02c0.01,0,0.01-0.01,0.02-0.01l-2.41-0.02C54.53,58,54.52,58,54.52,58"/>
				<path class="st13" d="M54.54,57.99l2.41,0.02c0.01,0,0.01-0.01,0.02-0.01l-2.41-0.02C54.55,57.99,54.54,57.99,54.54,57.99"/>
				<path class="st14" d="M54.55,57.98L56.96,58c0.01,0,0.01-0.01,0.02-0.01l-2.41-0.02C54.57,57.98,54.56,57.98,54.55,57.98"/>
				<path class="st15" d="M54.57,57.97l2.41,0.02c0.01,0,0.01-0.01,0.02-0.01l-2.41-0.02C54.58,57.96,54.58,57.97,54.57,57.97"/>
				<path class="st16" d="M54.59,57.96L57,57.98c0.01,0,0.01-0.01,0.02-0.01l-2.41-0.02C54.6,57.95,54.6,57.95,54.59,57.96"/>
				<path class="st17" d="M54.61,57.95l2.41,0.02c0.01-0.01,0.01-0.01,0.02-0.02l-2.41-0.02C54.62,57.93,54.61,57.94,54.61,57.95"/>
				<path class="st18" d="M54.62,57.93l2.41,0.02c0.01-0.01,0.01-0.01,0.02-0.02l-2.41-0.02C54.64,57.92,54.63,57.92,54.62,57.93"/>
				<path class="st19" d="M54.64,57.91l2.41,0.02c0.01-0.01,0.01-0.02,0.02-0.02l-2.41-0.02C54.66,57.89,54.65,57.9,54.64,57.91"/>
				<path class="st20" d="M54.66,57.89l2.41,0.02c0.01-0.01,0.01-0.02,0.02-0.03l-2.41-0.02C54.68,57.87,54.67,57.88,54.66,57.89"/>
				<path class="st21" d="M54.68,57.86l2.41,0.02c0.01-0.01,0.02-0.03,0.03-0.04l-2.41-0.02C54.7,57.83,54.69,57.84,54.68,57.86"/>
				<path class="st22" d="M54.71,57.81l2.41,0.02c0.02-0.05,0.04-0.1,0.05-0.16l-2.41-0.02C54.75,57.71,54.73,57.76,54.71,57.81"/>
				<path class="st21" d="M54.76,57.66l2.41,0.02c0-0.02,0-0.03,0.01-0.05l-2.41-0.02C54.77,57.62,54.76,57.64,54.76,57.66"/>
				<path class="st20" d="M54.77,57.61l2.41,0.02c0-0.01,0-0.03,0-0.04l-2.41-0.02C54.77,57.58,54.77,57.59,54.77,57.61"/>
				<path class="st19" d="M54.77,57.57l2.41,0.02c0-0.01,0-0.02,0-0.03l-2.41-0.02C54.77,57.55,54.77,57.56,54.77,57.57"/>
				<path class="st18" d="M54.77,57.54l2.41,0.02c0-0.01,0-0.02,0-0.03l-2.41-0.02C54.77,57.52,54.77,57.53,54.77,57.54"/>
				<path class="st17" d="M54.77,57.51l2.41,0.02c0-0.01,0-0.02,0-0.03l-2.41-0.02C54.76,57.49,54.77,57.5,54.77,57.51"/>
				<path class="st16" d="M54.76,57.48l2.41,0.02c0-0.01,0-0.02,0-0.02l-2.41-0.02C54.76,57.47,54.76,57.48,54.76,57.48"/>
				<path class="st15" d="M54.76,57.46l2.41,0.02c0-0.01,0-0.02,0-0.02l-2.41-0.02C54.76,57.44,54.76,57.45,54.76,57.46"/>
				<path class="st14" d="M54.75,57.44l2.41,0.02c0-0.01,0-0.02-0.01-0.02l-2.41-0.02C54.75,57.42,54.75,57.43,54.75,57.44"/>
				<path class="st13" d="M54.75,57.41l2.41,0.02c0-0.01,0-0.01-0.01-0.02l-2.41-0.02C54.74,57.4,54.75,57.41,54.75,57.41"/>
				<path class="st12" d="M54.74,57.39l2.41,0.02c0-0.01-0.01-0.01-0.01-0.02l-2.41-0.02C54.74,57.38,54.74,57.38,54.74,57.39"/>
				<path class="st11" d="M54.73,57.37l2.41,0.02c0-0.01-0.01-0.02-0.01-0.02l-2.41-0.02C54.73,57.35,54.73,57.36,54.73,57.37"/>
				<path class="st10" d="M54.73,57.35l2.41,0.02c0-0.01-0.01-0.01-0.01-0.02l-2.41-0.02C54.72,57.33,54.72,57.34,54.73,57.35"/>
				<polyline class="st9" points="54.71,57.32 57.12,57.35 57.12,57.34 54.71,57.32 54.71,57.32 				"/>
			</g>
		</g>
	</g>
	<g class="st0">
		<g>
			<polygon class="st1" points="18.37,22.88 20.91,22.91 24,22.93 21.46,22.9 			"/>
		</g>
		<g>
			<polygon class="st23" points="21.46,22.9 24,22.93 30.73,8.84 28.19,8.81 			"/>
		</g>
		<g class="st0">
			<defs>
				<path id="SVGID_3_" class="st0" d="M28.19,8.81l2.54,0.02c0.08-0.17,0.22-0.25,0.36-0.25l-2.54-0.02
					C28.41,8.56,28.27,8.64,28.19,8.81z"/>
			</defs>
			<clipPath id="SVGID_4_">
				<use xlink:href="#SVGID_3_"  style="overflow:visible;"/>
			</clipPath>
			<g class="st24">
				<path class="st22" d="M28.19,8.81l2.54,0.02c0-0.01,0.01-0.01,0.01-0.02L28.2,8.79C28.19,8.8,28.19,8.81,28.19,8.81"/>
				<path class="st21" d="M28.2,8.79l2.54,0.02c0.01-0.02,0.02-0.03,0.03-0.05l-2.54-0.02C28.22,8.76,28.21,8.78,28.2,8.79"/>
				<path class="st20" d="M28.22,8.74l2.54,0.02c0.01-0.01,0.01-0.02,0.02-0.03l-2.54-0.02C28.24,8.72,28.23,8.73,28.22,8.74"/>
				<path class="st19" d="M28.25,8.71l2.54,0.02c0.01-0.01,0.01-0.02,0.02-0.02l-2.54-0.02C28.26,8.7,28.25,8.71,28.25,8.71"/>
				<path class="st18" d="M28.27,8.69l2.54,0.02c0.01-0.01,0.01-0.01,0.02-0.02l-2.54-0.02C28.28,8.68,28.27,8.68,28.27,8.69"/>
				<path class="st17" d="M28.29,8.67l2.54,0.02c0.01-0.01,0.01-0.01,0.02-0.02l-2.54-0.02C28.3,8.66,28.29,8.66,28.29,8.67"/>
				<path class="st16" d="M28.31,8.65l2.54,0.02c0.01-0.01,0.01-0.01,0.02-0.02l-2.54-0.02C28.32,8.64,28.31,8.65,28.31,8.65"/>
				<path class="st15" d="M28.32,8.64l2.54,0.02c0.01,0,0.01-0.01,0.02-0.01l-2.54-0.02C28.34,8.63,28.33,8.63,28.32,8.64"/>
				<path class="st14" d="M28.34,8.62l2.54,0.02c0.01,0,0.01-0.01,0.02-0.01l-2.54-0.02C28.35,8.62,28.35,8.62,28.34,8.62"/>
				<path class="st13" d="M28.36,8.61l2.54,0.02c0.01,0,0.01-0.01,0.02-0.01L28.38,8.6C28.37,8.6,28.37,8.61,28.36,8.61"/>
				<path class="st12" d="M28.38,8.6l2.54,0.02c0.01,0,0.01-0.01,0.02-0.01L28.4,8.59C28.39,8.59,28.39,8.6,28.38,8.6"/>
				<path class="st11" d="M28.4,8.59l2.54,0.02c0.01,0,0.01-0.01,0.02-0.01l-2.54-0.02C28.41,8.59,28.4,8.59,28.4,8.59"/>
				<path class="st10" d="M28.42,8.58l2.54,0.02c0.01,0,0.01-0.01,0.02-0.01l-2.54-0.02C28.43,8.58,28.42,8.58,28.42,8.58"/>
				<path class="st9" d="M28.44,8.58l2.54,0.02c0.01,0,0.01,0,0.02-0.01l-2.54-0.02C28.45,8.57,28.45,8.57,28.44,8.58"/>
				<path class="st8" d="M28.46,8.57L31,8.59c0.01,0,0.02,0,0.02,0l-2.54-0.02C28.48,8.57,28.47,8.57,28.46,8.57"/>
				<path class="st7" d="M28.48,8.56l2.54,0.02c0.01,0,0.02,0,0.03,0l-2.54-0.02C28.5,8.56,28.49,8.56,28.48,8.56"/>
				<path class="st6" d="M28.51,8.56l2.54,0.02c0.01,0,0.02,0,0.03,0l-2.54-0.02C28.53,8.56,28.52,8.56,28.51,8.56"/>
				<polyline class="st5" points="28.54,8.56 31.08,8.58 31.08,8.58 28.54,8.56 28.54,8.56 				"/>
			</g>
		</g>
		<g class="st0">
			<defs>
				<path id="SVGID_5_" class="st0" d="M29.26,1.57l2.54,0.02c-0.08-0.17-0.22-0.26-0.36-0.26L28.9,1.31
					C29.04,1.31,29.18,1.4,29.26,1.57z"/>
			</defs>
			<clipPath id="SVGID_6_">
				<use xlink:href="#SVGID_5_"  style="overflow:visible;"/>
			</clipPath>
			<g class="st25">
				<polyline class="st10" points="29.26,1.57 31.8,1.59 31.8,1.58 29.26,1.56 29.26,1.57 				"/>
				<path class="st9" d="M29.26,1.56l2.54,0.02c0-0.01-0.01-0.02-0.01-0.03l-2.54-0.02C29.25,1.55,29.25,1.55,29.26,1.56"/>
				<path class="st8" d="M29.24,1.54l2.54,0.02c0-0.01-0.01-0.02-0.01-0.03l-2.54-0.02C29.24,1.52,29.24,1.53,29.24,1.54"/>
				<path class="st7" d="M29.23,1.51l2.54,0.02c-0.01-0.01-0.01-0.02-0.02-0.03l-2.54-0.02C29.22,1.49,29.22,1.5,29.23,1.51"/>
				<path class="st6" d="M29.21,1.49l2.54,0.02c-0.01-0.01-0.01-0.02-0.02-0.03l-2.54-0.02C29.2,1.47,29.21,1.48,29.21,1.49"/>
				<path class="st5" d="M29.19,1.46l2.54,0.02c-0.01-0.01-0.02-0.02-0.02-0.03l-2.54-0.02C29.18,1.44,29.19,1.45,29.19,1.46"/>
				<path class="st26" d="M29.17,1.43l2.54,0.02c-0.01-0.01-0.02-0.02-0.03-0.03L29.14,1.4C29.15,1.41,29.16,1.42,29.17,1.43"/>
				<path class="st27" d="M29.14,1.4l2.54,0.02c-0.07-0.06-0.16-0.09-0.24-0.09L28.9,1.31C28.98,1.31,29.07,1.34,29.14,1.4"/>
			</g>
		</g>
		<g>
			<path class="st3" d="M28.91,8.82L35.42,23l3.67,0.03L29.26,1.57c-0.08-0.17-0.22-0.26-0.36-0.26c-0.14,0-0.28,0.08-0.37,0.25
				L18.37,22.88l3.09,0.02l6.73-14.09c0.08-0.17,0.22-0.25,0.36-0.25C28.68,8.56,28.82,8.65,28.91,8.82z"/>
		</g>
		<g>
			<polygon class="st1" points="35.42,23 37.96,23.02 41.63,23.05 39.09,23.02 			"/>
		</g>
		<g>
			<polygon class="st2" points="39.09,23.02 41.63,23.05 31.8,1.59 29.26,1.57 			"/>
		</g>
	</g>
	<g class="st0">
		<g class="st0">
			<defs>
				<path id="SVGID_7_" class="st0" d="M7.1,54.53l2.43,0.02c-0.3,0-0.49-0.4-0.33-0.72l-2.43-0.02C6.62,54.13,6.8,54.53,7.1,54.53z
					"/>
			</defs>
			<clipPath id="SVGID_8_">
				<use xlink:href="#SVGID_7_"  style="overflow:visible;"/>
			</clipPath>
			<g class="st28">
				<path class="st27" d="M7.1,54.53l2.43,0.02c-0.09,0-0.16-0.03-0.22-0.09l-2.43-0.02C6.94,54.5,7.02,54.53,7.1,54.53"/>
				<path class="st26" d="M6.88,54.45l2.43,0.02c-0.01-0.01-0.02-0.02-0.03-0.03l-2.43-0.02C6.86,54.43,6.87,54.44,6.88,54.45"/>
				<path class="st5" d="M6.85,54.42l2.43,0.02c-0.01-0.01-0.02-0.02-0.02-0.03l-2.43-0.02C6.83,54.4,6.84,54.41,6.85,54.42"/>
				<path class="st6" d="M6.83,54.39l2.43,0.02c-0.01-0.01-0.01-0.02-0.02-0.02l-2.43-0.02C6.81,54.38,6.82,54.38,6.83,54.39"/>
				<path class="st7" d="M6.81,54.37l2.43,0.02c-0.01-0.01-0.01-0.01-0.01-0.02l-2.43-0.02C6.8,54.35,6.8,54.36,6.81,54.37"/>
				<path class="st8" d="M6.79,54.34l2.43,0.02c0-0.01-0.01-0.01-0.01-0.02l-2.43-0.02C6.79,54.33,6.79,54.34,6.79,54.34"/>
				<path class="st9" d="M7.14,53.96l2.43,0.02c0-0.01-0.01-0.01-0.01-0.02l-2.43-0.02C7.14,53.94,7.14,53.95,7.14,53.96"/>
				<path class="st10" d="M6.77,54.3l2.43,0.02c0-0.01-0.01-0.01-0.01-0.02l-2.43-0.02C6.76,54.28,6.77,54.29,6.77,54.3"/>
				<path class="st11" d="M6.76,54.28l2.43,0.02c0-0.01-0.01-0.01-0.01-0.02l-2.43-0.02C6.75,54.26,6.76,54.27,6.76,54.28"/>
				<path class="st12" d="M6.75,54.25l2.43,0.02c0-0.01-0.01-0.02-0.01-0.02l-2.43-0.02C6.74,54.24,6.75,54.25,6.75,54.25"/>
				<path class="st13" d="M6.74,54.23l2.43,0.02c0-0.01,0-0.02-0.01-0.02l-2.43-0.02C6.74,54.22,6.74,54.22,6.74,54.23"/>
				<path class="st14" d="M6.73,54.21l2.43,0.02c0-0.01,0-0.02-0.01-0.02l-2.43-0.02C6.73,54.19,6.73,54.2,6.73,54.21"/>
				<path class="st15" d="M6.73,54.18l2.43,0.02c0-0.01,0-0.02-0.01-0.02l-2.43-0.02C6.73,54.17,6.73,54.18,6.73,54.18"/>
				<path class="st16" d="M6.72,54.16l2.43,0.02c0-0.01,0-0.02,0-0.03l-2.43-0.02C6.72,54.14,6.72,54.15,6.72,54.16"/>
				<path class="st17" d="M6.72,54.13l2.43,0.02c0-0.01,0-0.02,0-0.03l-2.43-0.02C6.72,54.12,6.72,54.13,6.72,54.13"/>
				<path class="st18" d="M6.72,54.11l2.43,0.02c0-0.01,0-0.02,0-0.03l-2.43-0.02C6.71,54.09,6.72,54.1,6.72,54.11"/>
				<path class="st19" d="M6.71,54.08l2.43,0.02c0-0.01,0-0.02,0-0.03l-2.43-0.02C6.71,54.06,6.71,54.07,6.71,54.08"/>
				<path class="st20" d="M6.71,54.05l2.43,0.02c0-0.01,0-0.02,0-0.04l-2.43-0.02C6.71,54.02,6.71,54.03,6.71,54.05"/>
				<path class="st21" d="M6.72,54.01l2.43,0.02c0-0.02,0-0.03,0.01-0.05l-2.43-0.02C6.72,53.98,6.72,53.99,6.72,54.01"/>
				<path class="st22" d="M6.72,53.96l2.43,0.02c0.01-0.05,0.02-0.1,0.05-0.15l-2.43-0.02C6.75,53.86,6.73,53.91,6.72,53.96"/>
			</g>
		</g>
		<g>
			<polygon class="st23" points="6.77,53.81 9.2,53.83 14.37,42.97 11.95,42.95 			"/>
		</g>
		<g>
			<path class="st3" d="M2.31,56.94c-0.16,0.32,0.02,0.72,0.33,0.72l17.95,0.12l0.02-3.16L7.1,54.53c-0.3,0-0.49-0.4-0.33-0.72
				l5.18-10.87l-2.96-0.02L2.31,56.94z"/>
		</g>
		<g>
			<polygon class="st1" points="2.64,57.66 5.07,57.68 23.02,57.8 20.59,57.78 			"/>
		</g>
		<g>
			<polygon class="st23" points="20.59,57.78 23.02,57.8 23.04,54.65 20.62,54.62 			"/>
		</g>
	</g>
</g>
<g>
	<g class="st0">
		<g>
			<rect x="25.83" y="40.05" class="st23" width="2.54" height="8.82"/>
		</g>
		<g>
			<rect x="25.83" y="29.71" class="st23" width="2.54" height="7.72"/>
		</g>
		<g>
			<rect x="33.71" y="37.44" class="st23" width="2.54" height="2.61"/>
		</g>
		<g>
			<polygon class="st29" points="25.83,37.44 28.37,37.44 36.25,37.44 33.71,37.44 			"/>
		</g>
		<g>
			<polygon class="st29" points="23.21,27.06 25.75,27.06 36.7,27.06 34.16,27.06 			"/>
		</g>
		<g>
			<rect x="34.16" y="27.06" class="st23" width="2.54" height="2.65"/>
		</g>
		<g>
			<polygon class="st29" points="25.83,48.87 28.37,48.87 37.15,48.87 34.61,48.87 			"/>
		</g>
		<g>
			<rect x="34.61" y="48.87" class="st23" width="2.54" height="2.65"/>
		</g>
		<g>
			<polygon class="st3" points="34.16,27.06 34.16,29.71 25.83,29.71 25.83,37.44 33.71,37.44 33.71,40.05 25.83,40.05 25.83,48.87 
				34.61,48.87 34.61,51.52 23.21,51.52 23.21,27.06 			"/>
		</g>
	</g>
</g>
</svg>
